<svg xmlns="http://www.w3.org/2000/svg" viewBox="0 0 1600 220" role="img" aria-labelledby="title desc">
  <title id="title">SafeCare Transportation banner</title>
  <desc id="desc">A slim abstract road banner in navy, gold, and white.</desc>
  <defs>
    <linearGradient id="sky" x1="0" x2="1" y1="0" y2="1">
      <stop offset="0" stop-color="#0D1B2A"/>
      <stop offset="1" stop-color="#1A2E42"/>
    </linearGradient>
    <linearGradient id="road" x1="0" x2="1" y1="0" y2="0">
      <stop offset="0" stop-color="#222B35"/>
      <stop offset="0.5" stop-color="#343A40"/>
      <stop offset="1" stop-color="#202832"/>
    </linearGradient>
  </defs>
  <rect width="1600" height="220" fill="url(#sky)"/>
  <circle cx="1320" cy="56" r="32" fill="#C9A84C" opacity="0.9"/>
  <path d="M0 128 C230 104 360 152 570 130 C780 108 930 78 1140 104 C1325 127 1440 123 1600 94 L1600 220 L0 220 Z" fill="#FFFFFF" opacity="0.08"/>
  <path d="M0 148 C280 128 470 166 680 146 C920 123 1150 132 1600 104 L1600 220 L0 220 Z" fill="url(#road)"/>
  <path d="M0 175 C360 158 720 158 1080 138 C1250 129 1420 116 1600 100" fill="none" stroke="#C9A84C" stroke-width="8" stroke-dasharray="54 34" stroke-linecap="round" opacity="0.95"/>
  <g fill="#FFFFFF" opacity="0.16">
    <rect x="96" y="76" width="80" height="8" rx="4"/>
    <rect x="218" y="58" width="130" height="8" rx="4"/>
    <rect x="1234" y="112" width="112" height="8" rx="4"/>
    <rect x="1388" y="86" width="74" height="8" rx="4"/>
  </g>
  <g transform="translate(710 78)">
    <path d="M35 52 L55 22 C61 13 72 8 84 8 H178 C190 8 201 14 207 24 L225 52 H244 C255 52 264 61 264 72 V91 H10 V72 C10 61 19 52 30 52 H35 Z" fill="#C9A84C"/>
    <path d="M69 49 L83 27 H174 L191 49 H69 Z" fill="#FFFFFF" opacity="0.82"/>
    <circle cx="63" cy="94" r="20" fill="#0D1B2A"/>
    <circle cx="211" cy="94" r="20" fill="#0D1B2A"/>
    <circle cx="63" cy="94" r="8" fill="#E2C47A"/>
    <circle cx="211" cy="94" r="8" fill="#E2C47A"/>
  </g>
</svg>
